<?xml version="1.0" standalone="no"?>
<!DOCTYPE svg PUBLIC "-//W3C//DTD SVG 20010904//EN"
 "http://www.w3.org/TR/2001/REC-SVG-20010904/DTD/svg10.dtd">
<svg version="1.0" xmlns="http://www.w3.org/2000/svg"
 width="120.000000pt" height="120.000000pt" viewBox="0 0 120.000000 120.000000"
 preserveAspectRatio="xMidYMid meet">
<metadata>
Created by potrace 1.14, written by Peter Selinger 2001-2017
</metadata>
<g transform="translate(0.000000,120.000000) scale(0.100000,-0.100000)"
fill="#000000" stroke="none">
<path d="M619 1134 c-41 -31 -95 -72 -121 -92 l-48 -36 0 -111 0 -110 -34 -27
c-31 -25 -34 -31 -34 -85 0 -32 -1 -66 -1 -76 -1 -9 -27 -38 -60 -63 l-58 -45
-1 -212 c0 -117 0 -218 -1 -224 -1 -10 -34 -13 -131 -13 -123 0 -130 -1 -130
-20 0 -20 7 -20 600 -20 593 0 600 0 600 20 0 19 -7 20 -137 20 l-138 0 1 183
c1 123 -2 188 -10 198 -6 8 -41 36 -77 63 l-67 48 -1 246 c0 134 -2 247 -4
249 -3 2 -11 -3 -20 -11 -34 -35 -41 -24 -42 71 -1 51 -4 95 -7 98 -3 3 -39
-20 -79 -51z m46 -104 c-1 -44 -3 -81 -6 -83 -103 -82 -150 -117 -158 -117 -7
0 -11 29 -11 75 0 73 1 77 33 104 59 52 122 99 133 100 7 1 10 -27 9 -79z m67
-257 c-1 -239 1 -221 -15 -198 -10 15 -13 65 -12 185 0 149 7 202 22 186 3 -3
5 -81 5 -173z m-68 -44 l2 -162 33 -28 34 -28 -1 -223 c0 -123 -1 -229 -1
-235 -1 -9 -26 -13 -88 -13 l-88 0 1 323 c0 177 -1 328 -4 335 -4 10 -8 10
-21 -1 -37 -32 -41 -30 -41 20 l0 48 83 66 c45 37 84 65 86 63 2 -2 5 -76 5
-165z m-214 -41 c0 -42 -13 -78 -24 -67 -13 13 -12 70 1 89 20 28 23 26 23
-22z m68 -353 c0 -247 -2 -295 -14 -295 -12 0 -14 47 -14 289 1 270 3 301 20
301 4 0 7 -133 8 -295z m-68 -25 c0 -224 -2 -270 -14 -270 -8 0 -16 6 -18 13
-2 6 -3 124 -3 260 1 206 3 250 15 257 8 6 16 10 18 10 1 0 2 -121 2 -270z
m-67 -27 l1 -238 -39 0 -40 0 -2 210 -2 210 37 32 c20 17 38 30 40 28 2 -2 4
-111 5 -242z m506 -64 l-1 -179 -58 0 -57 0 0 208 c0 114 2 212 4 219 3 7 25
-4 58 -29 l54 -40 0 -179z"/>
</g>
</svg>
