<?xml version="1.0" encoding="UTF-8"?>
<svg id="uuid-96a2c5f1-a6af-4bf6-841e-c5b1494066b4" data-name="Слой 1" xmlns="http://www.w3.org/2000/svg" viewBox="0 0 594.18 775.28">
<!--  <path d="m2.16,783.7V-5.63h589.85v789.33H2.16ZM284.47,2.36c-2.45.2-4.9.51-7.35.58-14.89.46-29.52,2.85-43.98,6.2-36.9,8.52-70.8,23.84-101.53,45.98-46.72,33.67-80.56,77.39-101.58,131.02-8.29,21.14-14.13,42.95-16.98,65.5-1.18,9.38-2.39,18.79-2.76,28.22-.38,9.98.08,19.99.44,29.99.53,14.92,2.58,29.66,5.67,44.27,8.51,40.25,24.6,77.22,48.94,110.33,24.17,32.88,49.05,65.25,73.64,97.82,41.94,55.56,83.89,111.11,125.84,166.67,10.8,14.3,21.58,28.63,32.47,43.08.67-.85,1.26-1.56,1.82-2.3,10-13.24,20.01-26.47,30-39.72,43.14-57.16,86.28-114.33,129.42-171.49,20.97-27.78,41.86-55.62,62.96-83.3,14.62-19.18,27.43-39.42,37.25-61.47,11.67-26.18,20.08-53.3,22.95-81.94,1.18-11.76,2.12-23.56,2.76-35.37.33-6.05-.03-12.16-.45-18.21-.56-8.02-1.23-16.05-2.34-24.01-1.36-9.76-2.67-19.59-4.97-29.16-14.09-58.48-43.09-108.27-87.59-148.9-27.21-24.85-58.16-43.55-92.6-56.54-27.8-10.49-56.59-16.02-86.25-17.26-4.16-.2-8.31-.55-12.47-.55-4.44,0-8.88.35-13.33.54Z" style="fill: #fff; stroke-width: 0px;"/>-->
  <path d="m310.27,2.36c29.65,1.24,58.44,6.78,86.25,17.26,34.44,12.99,65.39,31.7,92.6,56.54,44.5,40.63,73.49,90.42,87.59,148.9,2.31,9.57,3.61,19.39,4.97,29.16,1.11,7.96,1.78,15.99,2.34,24.01.42,6.06.78,12.17.45,18.21-.64,11.8-1.58,23.6-2.76,35.37-2.87,28.63-11.29,55.76-22.95,81.94-9.83,22.05-22.63,42.29-37.25,61.47-21.1,27.68-41.99,55.52-62.96,83.3-43.15,57.16-86.28,114.33-129.42,171.49-10,13.24-20,26.48-30,39.72-.55.73-1.14,1.44-1.82,2.3-10.9-14.46-21.67-28.78-32.47-43.08-41.94-55.56-83.9-111.11-125.84-166.67-24.59-32.58-49.47-64.94-73.64-97.82-24.34-33.12-40.42-70.09-48.94-110.33-3.09-14.61-5.14-29.35-5.67-44.27-.36-9.99-.82-20.01-.44-29.99.36-9.43,1.57-18.84,2.76-28.22,2.84-22.55,8.69-44.35,16.98-65.5,21.02-53.62,54.86-97.35,101.58-131.02,30.73-22.14,64.63-37.46,101.53-45.98,14.46-3.34,29.09-5.74,43.98-6.2,2.45-.08,4.9-.38,7.35-.58,8.6,0,17.2,0,25.8,0Zm265.68,277.3c-.87-7.68-1.37-13.73-2.28-19.71-1.57-10.33-2.94-20.73-5.2-30.92-10.95-49.17-33.7-92.26-67.85-129.23-25.61-27.72-55.7-49.39-90.17-64.86-32.34-14.52-66.34-22.17-101.67-23.84-8.91-.42-17.9-.03-26.81.52-9.45.59-18.93,1.42-28.29,2.83-24.09,3.64-47.3,10.49-69.53,20.52-35.97,16.22-67.11,39.1-93.41,68.5-29.54,33.01-50.11,70.94-61.67,113.71-3.56,13.17-6.6,26.47-8.03,40.08-.76,7.23-1.98,14.46-2.15,21.71-.25,10.65.09,21.33.51,31.98.27,6.88.65,13.81,1.81,20.58,1.89,11.04,4.09,22.05,6.79,32.92,8.14,32.77,21.81,63.12,41.45,90.58,13.3,18.61,27.34,36.71,41.11,54.98,28.76,38.15,57.57,76.26,86.35,114.39,31.31,41.48,62.61,82.97,93.91,124.46,3.9,5.17,9.14,5.22,13.01.09,35.91-47.57,71.82-95.13,107.72-142.71,33.83-44.83,67.58-89.73,101.52-134.49,13-17.14,24.97-34.86,34.32-54.28,13.26-27.54,22.16-56.39,25.69-86.77,1.37-11.82,2.09-23.72,2.82-35.6.35-5.68.06-11.39.06-15.47Z" style="fill: #0086cb; stroke-width: 0px;"/>
  <path d="m310.27,2.36c-8.6,0-17.2,0-25.8,0,4.44-.2,8.88-.54,13.33-.54,4.16,0,8.31.35,12.47.55Z" style="fill: #79c1eb; stroke-width: 0px;"/>
<!--  <path d="m575.96,279.66c0,4.08.29,9.79-.06,15.47-.74,11.88-1.45,23.78-2.82,35.6-3.53,30.39-12.43,59.23-25.69,86.77-9.35,19.42-21.32,37.14-34.32,54.28-33.94,44.75-67.69,89.65-101.52,134.49-35.9,47.57-71.81,95.14-107.72,142.71-3.87,5.13-9.11,5.08-13.01-.09-31.3-41.49-62.6-82.98-93.91-124.46-28.78-38.13-57.59-76.24-86.35-114.39-13.78-18.27-27.81-36.37-41.11-54.98-19.63-27.46-33.31-57.82-41.45-90.58-2.7-10.87-4.9-21.88-6.79-32.92-1.16-6.77-1.54-13.7-1.81-20.58-.41-10.65-.75-21.33-.51-31.98.17-7.25,1.39-14.47,2.15-21.71,1.44-13.61,4.47-26.91,8.03-40.08,11.56-42.77,32.14-80.7,61.67-113.71,26.3-29.4,57.44-52.28,93.41-68.5,22.23-10.02,45.43-16.87,69.53-20.52,9.36-1.42,18.84-2.24,28.29-2.83,8.92-.55,17.9-.95,26.81-.52,35.33,1.67,69.33,9.31,101.67,23.84,34.46,15.48,64.56,37.14,90.17,64.86,34.14,36.97,56.9,80.06,67.85,129.23,2.27,10.19,3.63,20.58,5.2,30.92.91,5.99,1.41,12.03,2.28,19.71Zm-430.75,15.76c-.25,11.94,1.05,23.7,3.88,35.24,8.02,32.73,24.6,60.31,50.23,82.25,25.4,21.75,54.95,33.85,88.26,36.09,10,.67,20.21,0,30.19-1.17,23.58-2.79,45.05-11.58,64.61-24.94,20.02-13.67,35.95-31.19,47.74-52.4,12.43-22.37,19-46.35,19.3-71.98.05-4.55-.23-9.11-.59-13.64-.49-6.16-.71-12.4-1.9-18.44-6.53-33.26-22.04-61.64-46.98-84.7-24.52-22.67-53.35-36.13-86.63-39.56-14.06-1.45-28.19-1.27-42.12,1.29-33.81,6.21-62.46,22.01-85.57,47.49-26.85,29.59-40.26,64.5-40.42,104.46Z" style="fill: #fff; stroke-width: 0px;"/>-->
  <path d="m145.21,295.42c.16-39.96,13.56-74.86,40.42-104.46,23.11-25.47,51.76-41.28,85.57-47.49,13.93-2.56,28.06-2.73,42.12-1.29,33.28,3.42,62.11,16.89,86.63,39.56,24.94,23.05,40.45,51.44,46.98,84.7,1.19,6.04,1.41,12.28,1.9,18.44.36,4.54.64,9.1.59,13.64-.29,25.63-6.87,49.61-19.3,71.98-11.78,21.21-27.72,38.73-47.74,52.4-19.55,13.35-41.02,22.15-64.61,24.94-9.98,1.18-20.19,1.85-30.19,1.17-33.31-2.25-62.85-14.34-88.26-36.09-25.63-21.95-42.21-49.53-50.23-82.25-2.83-11.55-4.13-23.3-3.88-35.24Zm144.38,144.66c5.19,0,10.38,0,15.57,0,7.14-.97,14.35-1.52,21.39-2.97,32.35-6.64,59.03-23.01,80.28-48.15,21.31-25.2,32.15-54.66,33.82-87.41.47-9.24-.23-18.68-1.59-27.85-5.48-36.88-22.73-67.36-51.46-91.13-24.57-20.33-53.14-30.58-84.82-32.31-10.06-.55-20.08.41-30.01,2.16-28.68,5.07-53.6,17.69-74.45,37.93-26.03,25.27-40.54,56.2-43.89,92.33-1.14,12.25-.84,24.46,1.35,36.62,6.63,36.77,24.17,67.09,53.47,90.37,23.5,18.67,50.42,28.58,80.34,30.41Z" style="fill: #0086cb; stroke-width: 0px;"/>
<!--  <path d="m289.59,440.08c-29.92-1.83-56.84-11.74-80.34-30.41-29.3-23.27-46.84-53.6-53.47-90.37-2.19-12.16-2.49-24.37-1.35-36.62,3.35-36.12,17.86-67.06,43.89-92.33,20.86-20.25,45.78-32.86,74.45-37.93,9.93-1.76,19.95-2.71,30.01-2.16,31.68,1.73,60.25,11.98,84.82,32.31,28.73,23.77,45.98,54.25,51.46,91.13,1.36,9.17,2.06,18.61,1.59,27.85-1.67,32.76-12.52,62.21-33.82,87.41-21.25,25.14-47.93,41.51-80.28,48.15-7.04,1.44-14.26,2-21.39,2.97-5.19,0-10.38,0-15.57,0Z" style="fill: #fff; stroke-width: 0px;"/>-->
  <path d="m289.59,440.08c5.19,0,10.38,0,15.57,0-5.19,0-10.38,0-15.57,0Z" style="fill: #a0d2f2; stroke-width: 0px;"/>
</svg>