<?xml version="1.0" encoding="UTF-8"?>
<!DOCTYPE svg PUBLIC "-//W3C//DTD SVG 1.1//EN" "http://www.w3.org/Graphics/SVG/1.1/DTD/svg11.dtd">
<!-- Creator: CorelDRAW 2021.5 -->
<svg xmlns="http://www.w3.org/2000/svg" xml:space="preserve" width="23mm" height="28mm" version="1.1" style="shape-rendering:geometricPrecision; text-rendering:geometricPrecision; image-rendering:optimizeQuality; fill-rule:evenodd; clip-rule:evenodd"
viewBox="0 0 2300 2800"
 xmlns:xlink="http://www.w3.org/1999/xlink"
 xmlns:xodm="http://www.corel.com/coreldraw/odm/2003">
 <defs>
  <style type="text/css">
   <![CDATA[
    .fil0 {fill:#1086E0;fill-rule:nonzero}
   ]]>
  </style>
 </defs>
 <g id="Layer_x0020_1">
  <metadata id="CorelCorpID_0Corel-Layer"/>
  <path class="fil0" d="M27.44 391.7c82.61,0 150.38,-9.04 203.3,-27.11 52.93,-18.07 96.17,-42.6 129.73,-73.58 33.56,-30.98 60.67,-67.12 81.33,-108.43 20.65,-41.3 38.72,-85.19 54.21,-131.66l286.57 0 0 2032.46 -425.98 -335.02 0 -1054.61 -329.16 0 0 -302.05zm1374.73 1746.5c0,98.1 20.01,167.16 60.03,207.18 40.01,40.01 93.58,60.02 160.71,60.02 67.12,0 120.69,-20.01 160.7,-60.02 40.02,-40.02 60.03,-109.08 60.03,-207.18l0 -1463.81c0,-98.1 -20.01,-167.16 -60.03,-207.18 -40.01,-40.01 -93.58,-60.02 -160.7,-60.02 -67.13,0 -120.7,20.01 -160.71,60.02 -40.02,40.02 -60.03,109.08 -60.03,207.18l0 1463.81zm-425.97 -1436.7c0,-219.44 55.5,-387.9 166.52,-505.36 111.01,-117.47 271.07,-176.2 480.19,-176.2 209.11,0 369.17,58.73 480.19,176.2 111.01,117.46 166.51,285.92 166.51,505.36l0 1409.59c0,219.44 -55.5,387.9 -166.51,505.36 -100.27,106.09 -240.54,164.26 -420.82,174.54l-698.87 -549.66c-4.8,-41.22 -7.21,-84.62 -7.21,-130.24l0 -1409.59z"/>
 </g>
</svg>
