<?xml version="1.0" encoding="UTF-8"?>
<!DOCTYPE svg PUBLIC "-//W3C//DTD SVG 1.1//EN" "http://www.w3.org/Graphics/SVG/1.1/DTD/svg11.dtd">
<!-- Creator: CorelDRAW 2021.5 -->
<svg xmlns="http://www.w3.org/2000/svg" xml:space="preserve" width="75mm" height="48mm" version="1.1" style="shape-rendering:geometricPrecision; text-rendering:geometricPrecision; image-rendering:optimizeQuality; fill-rule:evenodd; clip-rule:evenodd"
viewBox="0 0 7500 4800"
 xmlns:xlink="http://www.w3.org/1999/xlink"
 xmlns:xodm="http://www.corel.com/coreldraw/odm/2003">
 <defs>
  <style type="text/css">
   <![CDATA[
    .fil1 {fill:#1086E0;fill-rule:nonzero}
    .fil0 {fill:#1086E0;fill-rule:nonzero}
   ]]>
  </style>
 </defs>
 <g id="Layer_x0020_1">
  <metadata id="CorelCorpID_0Corel-Layer"/>
  <g id="_1875365100128">
   <polygon class="fil0" points="2450.46,911.43 3448.35,1683.17 2450.44,2436.64 2450.44,2150.31 3072.3,1680.77 2450.44,1199.83 2450.44,911.46 "/>
   <polygon class="fil0" points="7419.15,4795.5 3397.46,1687.93 3418.1,1661.21 7474.37,4795.5 "/>
   <polygon class="fil0" points="5470.34,4795.5 8.97,588.83 8.97,546.21 5508.32,4782.14 5498,4795.5 "/>
   <polygon class="fil0" points="3513.28,4795.5 8.97,2096.27 8.97,2053.65 3551.26,4782.14 3540.94,4795.5 "/>
   <g>
    <path class="fil1" d="M3181.8 391.87c82.61,0 150.38,-9.04 203.3,-27.11 52.93,-18.07 96.17,-42.6 129.73,-73.58 33.56,-30.98 60.67,-67.12 81.33,-108.43 20.65,-41.3 38.72,-85.19 54.21,-131.66l286.57 0 0 2032.45 -425.98 -335.02 0 -1054.6 -329.16 0 0 -302.05zm1374.72 1746.49c0,98.1 20.01,167.16 60.03,207.18 40.01,40.01 93.58,60.02 160.71,60.02 67.12,0 120.69,-20.01 160.7,-60.02 40.02,-40.02 60.03,-109.08 60.03,-207.18l0 -1463.8c0,-98.1 -20.01,-167.16 -60.03,-207.18 -40.01,-40.01 -93.58,-60.02 -160.7,-60.02 -67.13,0 -120.7,20.01 -160.71,60.02 -40.02,40.02 -60.03,109.08 -60.03,207.18l0 1463.8zm-425.96 -1436.69c0,-219.44 55.5,-387.9 166.52,-505.36 111,-117.47 271.06,-176.2 480.18,-176.2 209.11,0 369.17,58.73 480.19,176.2 111.01,117.46 166.51,285.92 166.51,505.36l0 1409.58c0,219.44 -55.5,387.9 -166.51,505.36 -100.27,106.09 -240.54,164.26 -420.82,174.54l-698.86 -549.66c-4.8,-41.22 -7.21,-84.62 -7.21,-130.24l0 -1409.58z"/>
   </g>
  </g>
 </g>
</svg>
