<?xml version="1.0" encoding="UTF-8"?>
<!DOCTYPE svg PUBLIC "-//W3C//DTD SVG 1.1//EN" "http://www.w3.org/Graphics/SVG/1.1/DTD/svg11.dtd">
<!-- Creator: CorelDRAW 2021.5 -->
<svg xmlns="http://www.w3.org/2000/svg" xml:space="preserve" width="76mm" height="51mm" version="1.1" style="shape-rendering:geometricPrecision; text-rendering:geometricPrecision; image-rendering:optimizeQuality; fill-rule:evenodd; clip-rule:evenodd"
viewBox="0 0 7600 5100"
 xmlns:xlink="http://www.w3.org/1999/xlink"
 xmlns:xodm="http://www.corel.com/coreldraw/odm/2003">
 <defs>
  <style type="text/css">
   <![CDATA[
    .fil0 {fill:#E6E6E6;fill-rule:nonzero}
   ]]>
  </style>
 </defs>
 <g id="Layer_x0020_1">
  <metadata id="CorelCorpID_0Corel-Layer"/>
  <g id="_3079095491440">
   <path class="fil0" d="M2944.24 5096.3l0 -1297.6 -1204.56 -929.31 0 2226.91 -33.88 0 0 -2295.7c424.03,327.28 847.99,654.69 1272.32,981.59l0 1314.11 -33.88 0z"/>
   <path class="fil0" d="M2395.91 5096.3l0 -2453.7 -1627.69 -1255.76 0 3709.46 -33.88 0 0 -3778.24c565.16,435.99 1130,872.41 1695.45,1308.03l0 2470.21 -33.88 0z"/>
   <polygon class="fil0" points="2075.98,5096.3 2075.98,866.51 1069.38,88.18 1069.38,2830.39 54.19,3657.95 55.45,5096.3 21.71,5096.3 20.43,3641.9 1035.5,2814.45 1035.5,19.31 2109.86,850.03 2109.86,5096.3 "/>
   <polygon class="fil0" points="4628.39,5096.3 2950.86,3803.04 2971.5,3776.32 4683.69,5096.3 "/>
   <polygon class="fil0" points="5577.58,5096.3 2396.66,2644.09 2417.3,2617.37 5632.88,5096.3 "/>
   <polygon class="fil0" points="6537.95,5096.3 2082.6,1653.65 2103.24,1626.93 6593.17,5096.3 "/>
   <polygon class="fil0" points="7507.98,5096.3 2082.53,871.57 2103.31,844.97 7562.92,5096.3 "/>
   <polygon class="fil0" points="3669.81,5096.3 2950.86,4542.05 2971.5,4515.33 3725.11,5096.3 "/>
  </g>
 </g>
</svg>
