<?xml version="1.0" encoding="UTF-8"?>
<!DOCTYPE svg PUBLIC "-//W3C//DTD SVG 1.1//EN" "http://www.w3.org/Graphics/SVG/1.1/DTD/svg11.dtd">
<!-- Creator: CorelDRAW 2021.5 -->
<svg xmlns="http://www.w3.org/2000/svg" xml:space="preserve" width="8mm" height="6mm" version="1.1" style="shape-rendering:geometricPrecision; text-rendering:geometricPrecision; image-rendering:optimizeQuality; fill-rule:evenodd; clip-rule:evenodd"
     viewBox="0 0 800 600"
     xmlns:xlink="http://www.w3.org/1999/xlink"
     xmlns:xodm="http://www.corel.com/coreldraw/odm/2003">
 <defs>
  <style type="text/css">
   <![CDATA[
    .fil0 {fill:#E6E6E6;fill-rule:nonzero}
   ]]>
  </style>
 </defs>
 <g id="Layer_x0020_1">
  <metadata id="CorelCorpID_0Corel-Layer"/>
  <path class="fil0"
        d="M679.95 14.41l-572.69 0c0,0 0,0 0,0 -48.18,0 -87.27,39.02 -87.36,87.2l-0.01 409.59c0.1,48.18 39.19,87.19 87.37,87.19 0,0 0,0 0,0l572.69 0.01c0,-0.01 0,-0.01 0,-0.01 48.18,0 87.28,-39.01 87.36,-87.18l0 -409.6c-0.08,-48.18 -39.18,-87.2 -87.36,-87.2 0,0 0,0 0,0zm0 31.73c0.05,-0.01 0.11,-0.01 0.16,-0.01 8.3,0 16.51,1.94 23.92,5.65l-274.88 248.32c-9.74,8.72 -22.38,13.56 -35.46,13.56 -13.08,0 -25.72,-4.84 -35.46,-13.56l-275.06 -248.32c7.52,-3.65 15.75,-5.59 24.09,-5.64l572.69 0zm55.64 465.06c-0.08,30.66 -24.97,55.47 -55.64,55.47 0,0 0,0 0,0l-572.69 0c0,0 0,0 0,0 -30.66,0 -55.55,-24.81 -55.64,-55.47l-0.01 -409.59c0.15,-9.8 2.97,-19.41 8.15,-27.73l277.21 249.14c15.53,14.09 35.75,21.9 56.72,21.9 20.97,0 41.19,-7.81 56.71,-21.9l277.05 -249.15c5.32,8.51 8.14,18.33 8.14,28.36 0,0.02 0,0.03 0,0.04l0 408.93z"/>
 </g>
</svg>
