<?xml version="1.0" encoding="UTF-8"?>
<!DOCTYPE svg PUBLIC "-//W3C//DTD SVG 1.1//EN" "http://www.w3.org/Graphics/SVG/1.1/DTD/svg11.dtd">
<!-- Creator: CorelDRAW 2021.5 -->
<svg xmlns="http://www.w3.org/2000/svg" xml:space="preserve" width="7mm" height="9mm" version="1.1" style="shape-rendering:geometricPrecision; text-rendering:geometricPrecision; image-rendering:optimizeQuality; fill-rule:evenodd; clip-rule:evenodd"
viewBox="0 0 700 900"
 xmlns:xlink="http://www.w3.org/1999/xlink"
 xmlns:xodm="http://www.corel.com/coreldraw/odm/2003">
 <defs>
  <style type="text/css">
   <![CDATA[
    .fil0 {fill:#E6E6E6;fill-rule:nonzero}
   ]]>
  </style>
 </defs>
 <g id="Layer_x0020_1">
  <metadata id="CorelCorpID_0Corel-Layer"/>
  <path class="fil0" d="M470.56 40.67c39.98,16.56 76.7,41 108.19,72.49 58.82,58.82 91.42,135.38 96.65,213.75 5.22,78.33 -16.87,158.54 -67.38,224.68l-265.22 347.4 -265.22 -347.4c-50.51,-66.14 -72.6,-146.35 -67.38,-224.68 5.23,-78.37 37.83,-154.93 96.65,-213.75 31.49,-31.49 68.22,-55.93 108.21,-72.49 39.97,-16.56 83.22,-25.25 127.74,-25.25 44.52,0 87.76,8.69 127.76,25.25zm-255.2 183.75c32.64,-32.64 77.74,-52.88 127.44,-52.88 49.71,0 94.81,20.24 127.46,52.88 32.64,32.64 52.88,77.74 52.88,127.46 0,49.7 -20.24,94.8 -52.88,127.44 -32.66,32.63 -77.75,52.87 -127.46,52.87 -49.7,0 -94.81,-20.23 -127.46,-52.87 -32.63,-32.65 -52.87,-77.74 -52.87,-127.44 0,-49.71 20.24,-94.82 52.89,-127.46zm17.99 236.89c28.02,28.04 66.74,45.41 109.45,45.41 42.7,0 81.43,-17.37 109.46,-45.4 28.03,-28.02 45.4,-66.75 45.4,-109.44 0,-42.7 -17.37,-81.44 -45.4,-109.46 -28.03,-28.03 -66.76,-45.4 -109.46,-45.4 -42.71,0 -81.43,17.37 -109.46,45.4 -28.03,28.02 -45.4,66.75 -45.4,109.44 0,42.71 17.37,81.44 45.41,109.45zm109.45 395.73l244.99 -320.9c46.63,-61.07 67.05,-135.16 62.22,-207.55 -4.83,-72.38 -34.93,-143.11 -89.26,-197.44 -29.11,-29.11 -63.05,-51.7 -99.91,-66.97 -36.9,-15.27 -76.86,-23.29 -118.04,-23.29 -41.18,0 -81.13,8.02 -118.02,23.29 -36.87,15.27 -70.81,37.86 -99.92,66.97 -54.34,54.34 -84.43,125.06 -89.27,197.44 -4.83,72.39 15.59,146.48 62.22,207.55l244.99 320.9z"/>
 </g>
</svg>
