<?xml version="1.0" encoding="UTF-8"?>
<!DOCTYPE svg PUBLIC "-//W3C//DTD SVG 1.1//EN" "http://www.w3.org/Graphics/SVG/1.1/DTD/svg11.dtd">
<!-- Creator: CorelDRAW 2021.5 -->
<svg xmlns="http://www.w3.org/2000/svg" xml:space="preserve" width="9mm" height="9mm" version="1.1" style="shape-rendering:geometricPrecision; text-rendering:geometricPrecision; image-rendering:optimizeQuality; fill-rule:evenodd; clip-rule:evenodd"
viewBox="0 0 900 900"
 xmlns:xlink="http://www.w3.org/1999/xlink"
 xmlns:xodm="http://www.corel.com/coreldraw/odm/2003">
 <defs>
  <style type="text/css">
   <![CDATA[
    .fil0 {fill:#E6E6E6;fill-rule:nonzero}
   ]]>
  </style>
 </defs>
 <g id="Layer_x0020_1">
  <metadata id="CorelCorpID_0Corel-Layer"/>
  <path class="fil0" d="M38.65 745.71c-8.92,0 -16.19,-7.26 -16.19,-16.19 0,-8.92 7.27,-16.19 16.19,-16.19l808.3 0c8.92,0 16.19,7.27 16.19,16.19 0,8.93 -7.27,16.19 -16.19,16.19l-808.3 0zm0 -544.64c-8.92,0 -16.19,-7.27 -16.19,-16.19 0,-8.93 7.27,-16.19 16.19,-16.19l808.3 0c8.92,0 16.19,7.26 16.19,16.19 0,8.92 -7.27,16.19 -16.19,16.19l-808.3 0zm0 272.32c-8.92,0 -16.19,-7.27 -16.19,-16.19 0,-8.92 7.27,-16.19 16.19,-16.19l808.3 0c8.92,0 16.19,7.27 16.19,16.19 0,8.92 -7.27,16.19 -16.19,16.19l-808.3 0z"/>
 </g>
</svg>
