<svg xmlns="http://www.w3.org/2000/svg" xml:space="preserve" width="8mm" height="8mm" version="1.1" style="shape-rendering:geometricPrecision; text-rendering:geometricPrecision; image-rendering:optimizeQuality; fill-rule:evenodd; clip-rule:evenodd"
viewBox="0 0 800 800"
 xmlns:xlink="http://www.w3.org/1999/xlink">
 <defs>
  <style type="text/css">
   <![CDATA[
    .fil0 {fill:#E6E6E6}
   ]]>
  </style>
 </defs>
 <g id="Layer_x0020_1">
  <metadata id="CorelCorpID_0Corel-Layer"/>
  <g id="_3078883695680">
   <path class="fil0" d="M185.7 24.22c-10.03,-10.03 -23.64,-15.68 -37.84,-15.68 -14.2,0 -27.81,5.65 -37.83,15.68 -18.61,18.61 -44.55,44.54 -67.31,67.31 -38.91,38.91 -55.19,95.02 -43.14,148.71 0.02,0.07 0.03,0.15 0.05,0.23 19.95,83.74 71.58,219.21 206.98,354.61 135.4,135.4 270.91,187.03 354.68,206.84 0.05,0.02 0.12,0.02 0.2,0.04 53.62,12.04 109.71,-4.21 148.58,-43.08 22.82,-22.64 48.77,-48.59 67.4,-67.22 10.04,-10.02 15.67,-23.64 15.67,-37.83 0,-14.2 -5.65,-27.82 -15.67,-37.84 -33.95,-33.95 -94,-94 -127.95,-127.95 -10.02,-10.02 -23.64,-15.68 -37.83,-15.68 -14.2,0 -27.82,5.64 -37.84,15.68l-63.42 63.4c-5.15,5.18 -12.93,6.66 -19.61,3.8 -25.47,-15.46 -71.6,-47.75 -134.11,-110.26 -62.46,-62.46 -94.73,-108.55 -109.94,-133.99 -2.93,-6.73 -1.49,-14.45 3.64,-19.57 0.03,-0.05 0.06,-0.09 0.12,-0.13 17.28,-17.62 43.69,-44.03 63.11,-63.45 10.05,-10.03 15.69,-23.64 15.69,-37.84 0,-14.2 -5.66,-27.81 -15.69,-37.84l-127.94 -127.94zm-25.22 25.22l127.94 127.94c3.34,3.34 5.23,7.89 5.23,12.62 0,4.73 -1.89,9.28 -5.23,12.62 -19.5,19.49 -46.01,45.99 -63.37,63.68 -15.89,15.9 -20.03,40.3 -10.2,60.71 0.23,0.46 0.48,0.91 0.73,1.35 15.77,26.55 49.54,75.48 115.9,141.84 66.31,66.31 115.19,100.07 141.61,116.05 0.48,0.29 0.98,0.55 1.48,0.8 20.5,9.88 45.01,5.73 61.1,-10.39 0,0 63.4,-63.39 63.4,-63.39 3.34,-3.34 7.89,-5.23 12.62,-5.23 4.72,0 9.27,1.89 12.61,5.23l127.94 127.94c3.34,3.34 5.23,7.89 5.23,12.62 0,4.72 -1.89,9.27 -5.23,12.6 0,0 0,0 0,0 -18.6,18.59 -44.51,44.52 -67.34,67.17 -0.02,0.02 -0.04,0.04 -0.05,0.06 -30.22,30.19 -73.79,42.84 -115.46,33.51 -79.82,-18.89 -208.63,-68.39 -337.56,-197.32 -128.92,-128.92 -178.42,-257.74 -197.46,-337.53 -9.33,-41.73 3.33,-85.33 33.57,-115.57l67.31 -67.31c3.33,-3.33 7.88,-5.22 12.61,-5.22 4.73,0 9.28,1.89 12.62,5.22z"/>
   <path class="fil0" d="M397.61 100.8c167.39,0 303.27,135.88 303.27,303.27 0,9.85 8,17.84 17.84,17.84 9.85,0 17.84,-7.99 17.84,-17.84 0,-187.06 -151.88,-338.95 -338.95,-338.95 -9.84,0 -17.84,7.99 -17.84,17.84 0,9.85 8,17.84 17.84,17.84z"/>
   <path class="fil0" d="M397.61 207.84c108.31,0 196.23,87.93 196.23,196.23 0,9.85 8,17.84 17.85,17.84 9.85,0 17.84,-7.99 17.84,-17.84 0,-128 -103.92,-231.91 -231.92,-231.91 -9.84,0 -17.84,7.99 -17.84,17.84 0,9.84 8,17.84 17.84,17.84z"/>
  </g>
 </g>
</svg>
