<?xml version="1.0" encoding="UTF-8"?>
<!DOCTYPE svg PUBLIC "-//W3C//DTD SVG 1.1//EN" "http://www.w3.org/Graphics/SVG/1.1/DTD/svg11.dtd">
<!-- Creator: CorelDRAW 2021.5 -->
<svg xmlns="http://www.w3.org/2000/svg" xml:space="preserve" width="8mm" height="8mm" version="1.1" style="shape-rendering:geometricPrecision; text-rendering:geometricPrecision; image-rendering:optimizeQuality; fill-rule:evenodd; clip-rule:evenodd"
viewBox="0 0 800 800"
 xmlns:xlink="http://www.w3.org/1999/xlink"
 xmlns:xodm="http://www.corel.com/coreldraw/odm/2003">
 <defs>
  <style type="text/css">
   <![CDATA[
    .fil0 {fill:#E6E6E6;fill-rule:nonzero}
   ]]>
  </style>
 </defs>
 <g id="Layer_x0020_1">
  <metadata id="CorelCorpID_0Corel-Layer"/>
  <path class="fil0" d="M300.76 18.49c-80.78,1.41 -153.88,34.78 -207.05,87.97 -54.36,54.39 -88.04,129.51 -88.04,212.33 0,82.82 33.68,157.93 88.02,212.25 54.34,54.36 129.45,88.04 212.27,88.04 35.85,0 70.17,-6.3 101.89,-17.77 33.07,-11.98 63.47,-29.63 89.99,-51.69l7.54 -6.29 245.83 245.8c1.71,1.71 3.68,3.03 5.74,3.88 2.12,0.86 4.46,1.3 6.83,1.3 2.38,0 4.72,-0.44 6.79,-1.3 2.04,-0.85 4.05,-2.17 5.76,-3.88 3.44,-3.42 5.2,-8.01 5.2,-12.55 0,-4.56 -1.76,-9.1 -5.17,-12.51l-245.86 -245.86 6.32 -7.57c22.03,-26.47 39.71,-56.89 51.69,-89.94 11.47,-31.77 17.77,-66.09 17.77,-101.91 0,-82.82 -33.68,-157.94 -88.02,-212.28 -54.34,-54.33 -129.45,-88.02 -212.27,-88.02l-5.23 0zm5.25 565.12c-72.97,0 -139.24,-29.73 -187.18,-77.66 -47.94,-47.94 -77.67,-114.16 -77.67,-187.16 0,-72.98 29.73,-139.25 77.67,-187.19 47.96,-47.96 114.21,-77.69 187.18,-77.69 73,0 139.22,29.73 187.16,77.67 47.94,47.94 77.67,114.21 77.67,187.18 0,72.95 -29.73,139.22 -77.67,187.16 -45.56,45.57 -107.63,74.66 -176.35,77.44l-10.81 0.25z"/>
 </g>
</svg>
